<mxfile host="app.diagrams.net" modified="2022-03-20T07:48:47.192Z" agent="5.0 (X11; Linux x86_64) AppleWebKit/537.36 (KHTML, like Gecko) Chrome/95.0.4638.69 Safari/537.36" etag="KCHXRd8N-H_HsatyAacW" version="16.6.5" type="github" pages="2">
  <diagram id="I0iKNpL2dDFjR3JQlgoz" name="HDFS">
    <mxGraphModel dx="796" dy="400" grid="1" gridSize="10" guides="1" tooltips="1" connect="1" arrows="1" fold="1" page="1" pageScale="1" pageWidth="827" pageHeight="1169" math="0" shadow="0">
      <root>
        <mxCell id="0" />
        <mxCell id="1" parent="0" />
        <mxCell id="wMaF2IcnBX7iyWfK24k7-47" style="edgeStyle=orthogonalEdgeStyle;rounded=0;orthogonalLoop=1;jettySize=auto;html=1;entryX=0.5;entryY=0;entryDx=0;entryDy=0;" parent="1" source="wMaF2IcnBX7iyWfK24k7-1" target="wMaF2IcnBX7iyWfK24k7-5" edge="1">
          <mxGeometry relative="1" as="geometry" />
        </mxCell>
        <mxCell id="wMaF2IcnBX7iyWfK24k7-1" value="FileSystem" style="swimlane;fontStyle=1;align=center;verticalAlign=top;childLayout=stackLayout;horizontal=1;startSize=26;horizontalStack=0;resizeParent=1;resizeParentMax=0;resizeLast=0;collapsible=1;marginBottom=0;" parent="1" vertex="1">
          <mxGeometry x="80" y="120" width="600" height="86" as="geometry" />
        </mxCell>
        <mxCell id="wMaF2IcnBX7iyWfK24k7-2" value="+ " style="text;strokeColor=none;fillColor=none;align=left;verticalAlign=top;spacingLeft=4;spacingRight=4;overflow=hidden;rotatable=0;points=[[0,0.5],[1,0.5]];portConstraint=eastwest;" parent="wMaF2IcnBX7iyWfK24k7-1" vertex="1">
          <mxGeometry y="26" width="600" height="26" as="geometry" />
        </mxCell>
        <mxCell id="wMaF2IcnBX7iyWfK24k7-3" value="" style="line;strokeWidth=1;fillColor=none;align=left;verticalAlign=middle;spacingTop=-1;spacingLeft=3;spacingRight=3;rotatable=0;labelPosition=right;points=[];portConstraint=eastwest;" parent="wMaF2IcnBX7iyWfK24k7-1" vertex="1">
          <mxGeometry y="52" width="600" height="8" as="geometry" />
        </mxCell>
        <mxCell id="wMaF2IcnBX7iyWfK24k7-4" value="+ create(Path f) throws IOException : FSDataOutputStream" style="text;strokeColor=none;fillColor=none;align=left;verticalAlign=top;spacingLeft=4;spacingRight=4;overflow=hidden;rotatable=0;points=[[0,0.5],[1,0.5]];portConstraint=eastwest;" parent="wMaF2IcnBX7iyWfK24k7-1" vertex="1">
          <mxGeometry y="60" width="600" height="26" as="geometry" />
        </mxCell>
        <mxCell id="wMaF2IcnBX7iyWfK24k7-5" value="DistributedFileSystem" style="swimlane;fontStyle=1;align=center;verticalAlign=top;childLayout=stackLayout;horizontal=1;startSize=26;horizontalStack=0;resizeParent=1;resizeParentMax=0;resizeLast=0;collapsible=1;marginBottom=0;" parent="1" vertex="1">
          <mxGeometry x="80" y="280" width="600" height="180" as="geometry" />
        </mxCell>
        <mxCell id="wMaF2IcnBX7iyWfK24k7-6" value="+ " style="text;strokeColor=none;fillColor=none;align=left;verticalAlign=top;spacingLeft=4;spacingRight=4;overflow=hidden;rotatable=0;points=[[0,0.5],[1,0.5]];portConstraint=eastwest;" parent="wMaF2IcnBX7iyWfK24k7-5" vertex="1">
          <mxGeometry y="26" width="600" height="26" as="geometry" />
        </mxCell>
        <mxCell id="wMaF2IcnBX7iyWfK24k7-7" value="" style="line;strokeWidth=1;fillColor=none;align=left;verticalAlign=middle;spacingTop=-1;spacingLeft=3;spacingRight=3;rotatable=0;labelPosition=right;points=[];portConstraint=eastwest;" parent="wMaF2IcnBX7iyWfK24k7-5" vertex="1">
          <mxGeometry y="52" width="600" height="8" as="geometry" />
        </mxCell>
        <mxCell id="wMaF2IcnBX7iyWfK24k7-8" value="+ create(Path f, FsPermission permission, boolean overwrite, int bufferSize,short replication, long blockSize, &#xa;   Progressable progress) throws IOException : FSDataOutputStream" style="text;strokeColor=none;fillColor=none;align=left;verticalAlign=top;spacingLeft=4;spacingRight=4;overflow=hidden;rotatable=0;points=[[0,0.5],[1,0.5]];portConstraint=eastwest;" parent="wMaF2IcnBX7iyWfK24k7-5" vertex="1">
          <mxGeometry y="60" width="600" height="120" as="geometry" />
        </mxCell>
        <mxCell id="wMaF2IcnBX7iyWfK24k7-33" value="Packet" style="swimlane;" parent="1" vertex="1">
          <mxGeometry x="80" y="520" width="990" height="123" as="geometry" />
        </mxCell>
        <mxCell id="wMaF2IcnBX7iyWfK24k7-29" value="PacketHeader" style="swimlane;startSize=20;" parent="wMaF2IcnBX7iyWfK24k7-33" vertex="1">
          <mxGeometry y="23" width="370" height="100" as="geometry" />
        </mxCell>
        <mxCell id="wMaF2IcnBX7iyWfK24k7-30" value="PacketLength" style="swimlane;startSize=40;" parent="wMaF2IcnBX7iyWfK24k7-29" vertex="1">
          <mxGeometry y="20" width="130" height="80" as="geometry" />
        </mxCell>
        <mxCell id="wMaF2IcnBX7iyWfK24k7-31" value="HeaderLength" style="swimlane;startSize=40;" parent="wMaF2IcnBX7iyWfK24k7-29" vertex="1">
          <mxGeometry x="130" y="20" width="120" height="80" as="geometry" />
        </mxCell>
        <mxCell id="wMaF2IcnBX7iyWfK24k7-32" value="Header&#xa;&lt;Protobuf&gt;" style="swimlane;startSize=40;" parent="wMaF2IcnBX7iyWfK24k7-29" vertex="1">
          <mxGeometry x="250" y="20" width="120" height="80" as="geometry" />
        </mxCell>
        <mxCell id="wMaF2IcnBX7iyWfK24k7-34" value="PacketLength" style="swimlane;startSize=40;" parent="wMaF2IcnBX7iyWfK24k7-29" vertex="1">
          <mxGeometry y="20" width="130" height="80" as="geometry" />
        </mxCell>
        <mxCell id="wMaF2IcnBX7iyWfK24k7-35" value="HeaderLength" style="swimlane;startSize=40;" parent="wMaF2IcnBX7iyWfK24k7-29" vertex="1">
          <mxGeometry x="130" y="20" width="120" height="80" as="geometry" />
        </mxCell>
        <mxCell id="wMaF2IcnBX7iyWfK24k7-36" value="Header&#xa;&lt;Protobuf&gt;" style="swimlane;startSize=40;" parent="wMaF2IcnBX7iyWfK24k7-29" vertex="1">
          <mxGeometry x="250" y="20" width="120" height="80" as="geometry" />
        </mxCell>
        <mxCell id="wMaF2IcnBX7iyWfK24k7-11" value="Chukcums" style="swimlane;startSize=20;" parent="wMaF2IcnBX7iyWfK24k7-33" vertex="1">
          <mxGeometry x="370" y="23" width="330" height="100" as="geometry" />
        </mxCell>
        <mxCell id="wMaF2IcnBX7iyWfK24k7-37" value="Chucksum 2" style="swimlane;startSize=40;" parent="wMaF2IcnBX7iyWfK24k7-11" vertex="1">
          <mxGeometry x="90" y="20" width="90" height="80" as="geometry" />
        </mxCell>
        <mxCell id="wMaF2IcnBX7iyWfK24k7-45" value="Chucksum 1" style="swimlane;startSize=40;" parent="wMaF2IcnBX7iyWfK24k7-11" vertex="1">
          <mxGeometry y="20" width="90" height="80" as="geometry" />
        </mxCell>
        <mxCell id="wMaF2IcnBX7iyWfK24k7-46" value="......" style="swimlane;startSize=40;" parent="wMaF2IcnBX7iyWfK24k7-11" vertex="1">
          <mxGeometry x="180" y="20" width="70" height="80" as="geometry" />
        </mxCell>
        <mxCell id="wMaF2IcnBX7iyWfK24k7-21" value="Chucksum N" style="swimlane;startSize=40;" parent="wMaF2IcnBX7iyWfK24k7-11" vertex="1">
          <mxGeometry x="250" y="20" width="80" height="80" as="geometry" />
        </mxCell>
        <mxCell id="wMaF2IcnBX7iyWfK24k7-39" value="Data" style="swimlane;startSize=20;" parent="wMaF2IcnBX7iyWfK24k7-33" vertex="1">
          <mxGeometry x="700" y="23" width="290" height="100" as="geometry" />
        </mxCell>
        <mxCell id="wMaF2IcnBX7iyWfK24k7-40" value="Chunk 1" style="swimlane;startSize=40;" parent="wMaF2IcnBX7iyWfK24k7-39" vertex="1">
          <mxGeometry y="20" width="70" height="80" as="geometry" />
        </mxCell>
        <mxCell id="wMaF2IcnBX7iyWfK24k7-41" value="Chunk 2" style="swimlane;startSize=40;" parent="wMaF2IcnBX7iyWfK24k7-39" vertex="1">
          <mxGeometry x="70" y="20" width="70" height="80" as="geometry" />
        </mxCell>
        <mxCell id="wMaF2IcnBX7iyWfK24k7-42" value="Chuck N" style="swimlane;startSize=40;" parent="wMaF2IcnBX7iyWfK24k7-39" vertex="1">
          <mxGeometry x="210" y="20" width="80" height="80" as="geometry" />
        </mxCell>
        <mxCell id="wMaF2IcnBX7iyWfK24k7-43" value="......" style="swimlane;startSize=40;" parent="wMaF2IcnBX7iyWfK24k7-39" vertex="1">
          <mxGeometry x="140" y="20" width="70" height="80" as="geometry" />
        </mxCell>
      </root>
    </mxGraphModel>
  </diagram>
  <diagram id="yjq6YzPnM8DPSkvdMLqI" name="Yarn-Scheduler">
    <mxGraphModel dx="1623" dy="1630" grid="1" gridSize="10" guides="1" tooltips="1" connect="1" arrows="1" fold="1" page="1" pageScale="1" pageWidth="827" pageHeight="1169" math="0" shadow="0">
      <root>
        <mxCell id="27aQ2nf4AGTovxk-JPHq-0" />
        <mxCell id="27aQ2nf4AGTovxk-JPHq-1" parent="27aQ2nf4AGTovxk-JPHq-0" />
        <mxCell id="27aQ2nf4AGTovxk-JPHq-2" value="CapacityScheduler" style="swimlane;fontStyle=1;align=center;verticalAlign=top;childLayout=stackLayout;horizontal=1;startSize=26;horizontalStack=0;resizeParent=1;resizeParentMax=0;resizeLast=0;collapsible=1;marginBottom=0;" vertex="1" parent="27aQ2nf4AGTovxk-JPHq-1">
          <mxGeometry x="-200" y="160" width="400" height="190" as="geometry" />
        </mxCell>
        <mxCell id="27aQ2nf4AGTovxk-JPHq-3" value="- queueManager : CapacitySchedulerQueueManager " style="text;strokeColor=none;fillColor=none;align=left;verticalAlign=top;spacingLeft=4;spacingRight=4;overflow=hidden;rotatable=0;points=[[0,0.5],[1,0.5]];portConstraint=eastwest;" vertex="1" parent="27aQ2nf4AGTovxk-JPHq-2">
          <mxGeometry y="26" width="400" height="26" as="geometry" />
        </mxCell>
        <mxCell id="27aQ2nf4AGTovxk-JPHq-62" value="- workflowPriorityMappingsMgr : WorkflowPriorityMappingsManager" style="text;strokeColor=none;fillColor=none;align=left;verticalAlign=top;spacingLeft=4;spacingRight=4;overflow=hidden;rotatable=0;points=[[0,0.5],[1,0.5]];portConstraint=eastwest;" vertex="1" parent="27aQ2nf4AGTovxk-JPHq-2">
          <mxGeometry y="52" width="400" height="26" as="geometry" />
        </mxCell>
        <mxCell id="27aQ2nf4AGTovxk-JPHq-63" value="- preemptionManager :PreemptionManager" style="text;strokeColor=none;fillColor=none;align=left;verticalAlign=top;spacingLeft=4;spacingRight=4;overflow=hidden;rotatable=0;points=[[0,0.5],[1,0.5]];portConstraint=eastwest;" vertex="1" parent="27aQ2nf4AGTovxk-JPHq-2">
          <mxGeometry y="78" width="400" height="26" as="geometry" />
        </mxCell>
        <mxCell id="27aQ2nf4AGTovxk-JPHq-64" value="- csConfProvider : CSConfigurationProvider" style="text;strokeColor=none;fillColor=none;align=left;verticalAlign=top;spacingLeft=4;spacingRight=4;overflow=hidden;rotatable=0;points=[[0,0.5],[1,0.5]];portConstraint=eastwest;" vertex="1" parent="27aQ2nf4AGTovxk-JPHq-2">
          <mxGeometry y="104" width="400" height="26" as="geometry" />
        </mxCell>
        <mxCell id="27aQ2nf4AGTovxk-JPHq-4" value="" style="line;strokeWidth=1;fillColor=none;align=left;verticalAlign=middle;spacingTop=-1;spacingLeft=3;spacingRight=3;rotatable=0;labelPosition=right;points=[];portConstraint=eastwest;" vertex="1" parent="27aQ2nf4AGTovxk-JPHq-2">
          <mxGeometry y="130" width="400" height="8" as="geometry" />
        </mxCell>
        <mxCell id="27aQ2nf4AGTovxk-JPHq-5" value="+ " style="text;strokeColor=none;fillColor=none;align=left;verticalAlign=top;spacingLeft=4;spacingRight=4;overflow=hidden;rotatable=0;points=[[0,0.5],[1,0.5]];portConstraint=eastwest;" vertex="1" parent="27aQ2nf4AGTovxk-JPHq-2">
          <mxGeometry y="138" width="400" height="26" as="geometry" />
        </mxCell>
        <mxCell id="27aQ2nf4AGTovxk-JPHq-65" value="+ " style="text;strokeColor=none;fillColor=none;align=left;verticalAlign=top;spacingLeft=4;spacingRight=4;overflow=hidden;rotatable=0;points=[[0,0.5],[1,0.5]];portConstraint=eastwest;" vertex="1" parent="27aQ2nf4AGTovxk-JPHq-2">
          <mxGeometry y="164" width="400" height="26" as="geometry" />
        </mxCell>
        <mxCell id="27aQ2nf4AGTovxk-JPHq-7" value="AbstractYarnScheduler&lt;&#xa;FiCaSchedulerApp,&#xa;FiCaSchedulerNode&gt;" style="swimlane;fontStyle=1;align=center;verticalAlign=top;childLayout=stackLayout;horizontal=1;startSize=50;horizontalStack=0;resizeParent=1;resizeParentMax=0;resizeLast=0;collapsible=1;marginBottom=0;" vertex="1" parent="27aQ2nf4AGTovxk-JPHq-1">
          <mxGeometry x="280" y="16" width="200" height="110" as="geometry" />
        </mxCell>
        <mxCell id="27aQ2nf4AGTovxk-JPHq-8" value="+ " style="text;strokeColor=none;fillColor=none;align=left;verticalAlign=top;spacingLeft=4;spacingRight=4;overflow=hidden;rotatable=0;points=[[0,0.5],[1,0.5]];portConstraint=eastwest;" vertex="1" parent="27aQ2nf4AGTovxk-JPHq-7">
          <mxGeometry y="50" width="200" height="26" as="geometry" />
        </mxCell>
        <mxCell id="27aQ2nf4AGTovxk-JPHq-9" value="" style="line;strokeWidth=1;fillColor=none;align=left;verticalAlign=middle;spacingTop=-1;spacingLeft=3;spacingRight=3;rotatable=0;labelPosition=right;points=[];portConstraint=eastwest;" vertex="1" parent="27aQ2nf4AGTovxk-JPHq-7">
          <mxGeometry y="76" width="200" height="8" as="geometry" />
        </mxCell>
        <mxCell id="27aQ2nf4AGTovxk-JPHq-10" value="+ " style="text;strokeColor=none;fillColor=none;align=left;verticalAlign=top;spacingLeft=4;spacingRight=4;overflow=hidden;rotatable=0;points=[[0,0.5],[1,0.5]];portConstraint=eastwest;" vertex="1" parent="27aQ2nf4AGTovxk-JPHq-7">
          <mxGeometry y="84" width="200" height="26" as="geometry" />
        </mxCell>
        <mxCell id="27aQ2nf4AGTovxk-JPHq-14" value="I   ResourceScheduler" style="swimlane;fontStyle=1;align=center;verticalAlign=top;childLayout=stackLayout;horizontal=1;startSize=26;horizontalStack=0;resizeParent=1;resizeParentMax=0;resizeLast=0;collapsible=1;marginBottom=0;" vertex="1" parent="27aQ2nf4AGTovxk-JPHq-1">
          <mxGeometry x="560" y="40" width="160" height="86" as="geometry" />
        </mxCell>
        <mxCell id="27aQ2nf4AGTovxk-JPHq-15" value="+ " style="text;strokeColor=none;fillColor=none;align=left;verticalAlign=top;spacingLeft=4;spacingRight=4;overflow=hidden;rotatable=0;points=[[0,0.5],[1,0.5]];portConstraint=eastwest;" vertex="1" parent="27aQ2nf4AGTovxk-JPHq-14">
          <mxGeometry y="26" width="160" height="26" as="geometry" />
        </mxCell>
        <mxCell id="27aQ2nf4AGTovxk-JPHq-16" value="" style="line;strokeWidth=1;fillColor=none;align=left;verticalAlign=middle;spacingTop=-1;spacingLeft=3;spacingRight=3;rotatable=0;labelPosition=right;points=[];portConstraint=eastwest;" vertex="1" parent="27aQ2nf4AGTovxk-JPHq-14">
          <mxGeometry y="52" width="160" height="8" as="geometry" />
        </mxCell>
        <mxCell id="27aQ2nf4AGTovxk-JPHq-17" value="+ " style="text;strokeColor=none;fillColor=none;align=left;verticalAlign=top;spacingLeft=4;spacingRight=4;overflow=hidden;rotatable=0;points=[[0,0.5],[1,0.5]];portConstraint=eastwest;" vertex="1" parent="27aQ2nf4AGTovxk-JPHq-14">
          <mxGeometry y="60" width="160" height="26" as="geometry" />
        </mxCell>
        <mxCell id="27aQ2nf4AGTovxk-JPHq-18" style="rounded=0;orthogonalLoop=1;jettySize=auto;html=1;exitX=1;exitY=0.5;exitDx=0;exitDy=0;entryX=0;entryY=0.5;entryDx=0;entryDy=0;" edge="1" parent="27aQ2nf4AGTovxk-JPHq-1" source="27aQ2nf4AGTovxk-JPHq-3" target="27aQ2nf4AGTovxk-JPHq-8">
          <mxGeometry relative="1" as="geometry" />
        </mxCell>
        <mxCell id="27aQ2nf4AGTovxk-JPHq-19" style="edgeStyle=orthogonalEdgeStyle;rounded=0;orthogonalLoop=1;jettySize=auto;html=1;exitX=1;exitY=0.5;exitDx=0;exitDy=0;entryX=0;entryY=0.5;entryDx=0;entryDy=0;dashed=1;" edge="1" parent="27aQ2nf4AGTovxk-JPHq-1" source="27aQ2nf4AGTovxk-JPHq-8" target="27aQ2nf4AGTovxk-JPHq-15">
          <mxGeometry relative="1" as="geometry" />
        </mxCell>
        <mxCell id="27aQ2nf4AGTovxk-JPHq-20" value="AbstractService" style="swimlane;fontStyle=1;align=center;verticalAlign=top;childLayout=stackLayout;horizontal=1;startSize=26;horizontalStack=0;resizeParent=1;resizeParentMax=0;resizeLast=0;collapsible=1;marginBottom=0;" vertex="1" parent="27aQ2nf4AGTovxk-JPHq-1">
          <mxGeometry x="560" y="-86" width="160" height="86" as="geometry" />
        </mxCell>
        <mxCell id="27aQ2nf4AGTovxk-JPHq-21" value="+ " style="text;strokeColor=none;fillColor=none;align=left;verticalAlign=top;spacingLeft=4;spacingRight=4;overflow=hidden;rotatable=0;points=[[0,0.5],[1,0.5]];portConstraint=eastwest;" vertex="1" parent="27aQ2nf4AGTovxk-JPHq-20">
          <mxGeometry y="26" width="160" height="26" as="geometry" />
        </mxCell>
        <mxCell id="27aQ2nf4AGTovxk-JPHq-22" value="" style="line;strokeWidth=1;fillColor=none;align=left;verticalAlign=middle;spacingTop=-1;spacingLeft=3;spacingRight=3;rotatable=0;labelPosition=right;points=[];portConstraint=eastwest;" vertex="1" parent="27aQ2nf4AGTovxk-JPHq-20">
          <mxGeometry y="52" width="160" height="8" as="geometry" />
        </mxCell>
        <mxCell id="27aQ2nf4AGTovxk-JPHq-23" value="+ " style="text;strokeColor=none;fillColor=none;align=left;verticalAlign=top;spacingLeft=4;spacingRight=4;overflow=hidden;rotatable=0;points=[[0,0.5],[1,0.5]];portConstraint=eastwest;" vertex="1" parent="27aQ2nf4AGTovxk-JPHq-20">
          <mxGeometry y="60" width="160" height="26" as="geometry" />
        </mxCell>
        <mxCell id="27aQ2nf4AGTovxk-JPHq-24" style="rounded=0;orthogonalLoop=1;jettySize=auto;html=1;exitX=1;exitY=0.5;exitDx=0;exitDy=0;entryX=0;entryY=0.5;entryDx=0;entryDy=0;" edge="1" parent="27aQ2nf4AGTovxk-JPHq-1" source="27aQ2nf4AGTovxk-JPHq-8" target="27aQ2nf4AGTovxk-JPHq-21">
          <mxGeometry relative="1" as="geometry" />
        </mxCell>
        <mxCell id="27aQ2nf4AGTovxk-JPHq-25" value="I   YarnScheduler" style="swimlane;fontStyle=1;align=center;verticalAlign=top;childLayout=stackLayout;horizontal=1;startSize=26;horizontalStack=0;resizeParent=1;resizeParentMax=0;resizeLast=0;collapsible=1;marginBottom=0;" vertex="1" parent="27aQ2nf4AGTovxk-JPHq-1">
          <mxGeometry x="760" y="120" width="280" height="90" as="geometry" />
        </mxCell>
        <mxCell id="27aQ2nf4AGTovxk-JPHq-26" value="+ " style="text;strokeColor=none;fillColor=none;align=left;verticalAlign=top;spacingLeft=4;spacingRight=4;overflow=hidden;rotatable=0;points=[[0,0.5],[1,0.5]];portConstraint=eastwest;" vertex="1" parent="27aQ2nf4AGTovxk-JPHq-25">
          <mxGeometry y="26" width="280" height="26" as="geometry" />
        </mxCell>
        <mxCell id="27aQ2nf4AGTovxk-JPHq-27" value="" style="line;strokeWidth=1;fillColor=none;align=left;verticalAlign=middle;spacingTop=-1;spacingLeft=3;spacingRight=3;rotatable=0;labelPosition=right;points=[];portConstraint=eastwest;" vertex="1" parent="27aQ2nf4AGTovxk-JPHq-25">
          <mxGeometry y="52" width="280" height="8" as="geometry" />
        </mxCell>
        <mxCell id="27aQ2nf4AGTovxk-JPHq-40" value="+" style="text;strokeColor=none;fillColor=none;align=left;verticalAlign=top;spacingLeft=4;spacingRight=4;overflow=hidden;rotatable=0;points=[[0,0.5],[1,0.5]];portConstraint=eastwest;" vertex="1" parent="27aQ2nf4AGTovxk-JPHq-25">
          <mxGeometry y="60" width="280" height="30" as="geometry" />
        </mxCell>
        <mxCell id="27aQ2nf4AGTovxk-JPHq-29" value="I   Recoverable" style="swimlane;fontStyle=1;align=center;verticalAlign=top;childLayout=stackLayout;horizontal=1;startSize=26;horizontalStack=0;resizeParent=1;resizeParentMax=0;resizeLast=0;collapsible=1;marginBottom=0;" vertex="1" parent="27aQ2nf4AGTovxk-JPHq-1">
          <mxGeometry x="760" width="280" height="86" as="geometry" />
        </mxCell>
        <mxCell id="27aQ2nf4AGTovxk-JPHq-30" value="+ void recover(RMState state) throws Exception; " style="text;strokeColor=none;fillColor=none;align=left;verticalAlign=top;spacingLeft=4;spacingRight=4;overflow=hidden;rotatable=0;points=[[0,0.5],[1,0.5]];portConstraint=eastwest;" vertex="1" parent="27aQ2nf4AGTovxk-JPHq-29">
          <mxGeometry y="26" width="280" height="26" as="geometry" />
        </mxCell>
        <mxCell id="27aQ2nf4AGTovxk-JPHq-31" value="" style="line;strokeWidth=1;fillColor=none;align=left;verticalAlign=middle;spacingTop=-1;spacingLeft=3;spacingRight=3;rotatable=0;labelPosition=right;points=[];portConstraint=eastwest;" vertex="1" parent="27aQ2nf4AGTovxk-JPHq-29">
          <mxGeometry y="52" width="280" height="8" as="geometry" />
        </mxCell>
        <mxCell id="27aQ2nf4AGTovxk-JPHq-32" value="+ " style="text;strokeColor=none;fillColor=none;align=left;verticalAlign=top;spacingLeft=4;spacingRight=4;overflow=hidden;rotatable=0;points=[[0,0.5],[1,0.5]];portConstraint=eastwest;" vertex="1" parent="27aQ2nf4AGTovxk-JPHq-29">
          <mxGeometry y="60" width="280" height="26" as="geometry" />
        </mxCell>
        <mxCell id="27aQ2nf4AGTovxk-JPHq-33" style="edgeStyle=none;rounded=0;orthogonalLoop=1;jettySize=auto;html=1;exitX=1;exitY=0.5;exitDx=0;exitDy=0;entryX=0;entryY=0.5;entryDx=0;entryDy=0;dashed=1;" edge="1" parent="27aQ2nf4AGTovxk-JPHq-1" source="27aQ2nf4AGTovxk-JPHq-15" target="27aQ2nf4AGTovxk-JPHq-26">
          <mxGeometry relative="1" as="geometry" />
        </mxCell>
        <mxCell id="27aQ2nf4AGTovxk-JPHq-34" style="edgeStyle=none;rounded=0;orthogonalLoop=1;jettySize=auto;html=1;exitX=1;exitY=0.5;exitDx=0;exitDy=0;entryX=-0.006;entryY=0.808;entryDx=0;entryDy=0;entryPerimeter=0;dashed=1;" edge="1" parent="27aQ2nf4AGTovxk-JPHq-1" source="27aQ2nf4AGTovxk-JPHq-15" target="27aQ2nf4AGTovxk-JPHq-30">
          <mxGeometry relative="1" as="geometry" />
        </mxCell>
        <mxCell id="27aQ2nf4AGTovxk-JPHq-35" value="I   EventHandler&lt;SchedulerEvent&gt;" style="swimlane;fontStyle=1;align=center;verticalAlign=top;childLayout=stackLayout;horizontal=1;startSize=26;horizontalStack=0;resizeParent=1;resizeParentMax=0;resizeLast=0;collapsible=1;marginBottom=0;" vertex="1" parent="27aQ2nf4AGTovxk-JPHq-1">
          <mxGeometry x="760" y="260" width="280" height="86" as="geometry" />
        </mxCell>
        <mxCell id="27aQ2nf4AGTovxk-JPHq-36" value="+ field: type" style="text;strokeColor=none;fillColor=none;align=left;verticalAlign=top;spacingLeft=4;spacingRight=4;overflow=hidden;rotatable=0;points=[[0,0.5],[1,0.5]];portConstraint=eastwest;" vertex="1" parent="27aQ2nf4AGTovxk-JPHq-35">
          <mxGeometry y="26" width="280" height="26" as="geometry" />
        </mxCell>
        <mxCell id="27aQ2nf4AGTovxk-JPHq-37" value="" style="line;strokeWidth=1;fillColor=none;align=left;verticalAlign=middle;spacingTop=-1;spacingLeft=3;spacingRight=3;rotatable=0;labelPosition=right;points=[];portConstraint=eastwest;" vertex="1" parent="27aQ2nf4AGTovxk-JPHq-35">
          <mxGeometry y="52" width="280" height="8" as="geometry" />
        </mxCell>
        <mxCell id="27aQ2nf4AGTovxk-JPHq-38" value="+ method(type): type" style="text;strokeColor=none;fillColor=none;align=left;verticalAlign=top;spacingLeft=4;spacingRight=4;overflow=hidden;rotatable=0;points=[[0,0.5],[1,0.5]];portConstraint=eastwest;" vertex="1" parent="27aQ2nf4AGTovxk-JPHq-35">
          <mxGeometry y="60" width="280" height="26" as="geometry" />
        </mxCell>
        <mxCell id="27aQ2nf4AGTovxk-JPHq-41" style="edgeStyle=none;rounded=0;orthogonalLoop=1;jettySize=auto;html=1;entryX=0.5;entryY=0;entryDx=0;entryDy=0;dashed=1;" edge="1" parent="27aQ2nf4AGTovxk-JPHq-1" target="27aQ2nf4AGTovxk-JPHq-35">
          <mxGeometry relative="1" as="geometry">
            <mxPoint x="900" y="210" as="sourcePoint" />
          </mxGeometry>
        </mxCell>
        <mxCell id="27aQ2nf4AGTovxk-JPHq-42" value="ResourceAllocationCommitter" style="swimlane;fontStyle=1;align=center;verticalAlign=top;childLayout=stackLayout;horizontal=1;startSize=26;horizontalStack=0;resizeParent=1;resizeParentMax=0;resizeLast=0;collapsible=1;marginBottom=0;" vertex="1" parent="27aQ2nf4AGTovxk-JPHq-1">
          <mxGeometry x="280" y="160" width="200" height="86" as="geometry" />
        </mxCell>
        <mxCell id="27aQ2nf4AGTovxk-JPHq-43" value="+ " style="text;strokeColor=none;fillColor=none;align=left;verticalAlign=top;spacingLeft=4;spacingRight=4;overflow=hidden;rotatable=0;points=[[0,0.5],[1,0.5]];portConstraint=eastwest;" vertex="1" parent="27aQ2nf4AGTovxk-JPHq-42">
          <mxGeometry y="26" width="200" height="26" as="geometry" />
        </mxCell>
        <mxCell id="27aQ2nf4AGTovxk-JPHq-44" value="" style="line;strokeWidth=1;fillColor=none;align=left;verticalAlign=middle;spacingTop=-1;spacingLeft=3;spacingRight=3;rotatable=0;labelPosition=right;points=[];portConstraint=eastwest;" vertex="1" parent="27aQ2nf4AGTovxk-JPHq-42">
          <mxGeometry y="52" width="200" height="8" as="geometry" />
        </mxCell>
        <mxCell id="27aQ2nf4AGTovxk-JPHq-45" value="+ " style="text;strokeColor=none;fillColor=none;align=left;verticalAlign=top;spacingLeft=4;spacingRight=4;overflow=hidden;rotatable=0;points=[[0,0.5],[1,0.5]];portConstraint=eastwest;" vertex="1" parent="27aQ2nf4AGTovxk-JPHq-42">
          <mxGeometry y="60" width="200" height="26" as="geometry" />
        </mxCell>
        <mxCell id="27aQ2nf4AGTovxk-JPHq-46" style="edgeStyle=none;rounded=0;orthogonalLoop=1;jettySize=auto;html=1;exitX=1;exitY=0.5;exitDx=0;exitDy=0;entryX=0;entryY=0.5;entryDx=0;entryDy=0;dashed=1;" edge="1" parent="27aQ2nf4AGTovxk-JPHq-1" source="27aQ2nf4AGTovxk-JPHq-3" target="27aQ2nf4AGTovxk-JPHq-43">
          <mxGeometry relative="1" as="geometry" />
        </mxCell>
        <mxCell id="27aQ2nf4AGTovxk-JPHq-47" value="MutableConfScheduler" style="swimlane;fontStyle=1;align=center;verticalAlign=top;childLayout=stackLayout;horizontal=1;startSize=26;horizontalStack=0;resizeParent=1;resizeParentMax=0;resizeLast=0;collapsible=1;marginBottom=0;" vertex="1" parent="27aQ2nf4AGTovxk-JPHq-1">
          <mxGeometry x="280" y="280" width="200" height="86" as="geometry" />
        </mxCell>
        <mxCell id="27aQ2nf4AGTovxk-JPHq-48" value="+ " style="text;strokeColor=none;fillColor=none;align=left;verticalAlign=top;spacingLeft=4;spacingRight=4;overflow=hidden;rotatable=0;points=[[0,0.5],[1,0.5]];portConstraint=eastwest;" vertex="1" parent="27aQ2nf4AGTovxk-JPHq-47">
          <mxGeometry y="26" width="200" height="26" as="geometry" />
        </mxCell>
        <mxCell id="27aQ2nf4AGTovxk-JPHq-49" value="" style="line;strokeWidth=1;fillColor=none;align=left;verticalAlign=middle;spacingTop=-1;spacingLeft=3;spacingRight=3;rotatable=0;labelPosition=right;points=[];portConstraint=eastwest;" vertex="1" parent="27aQ2nf4AGTovxk-JPHq-47">
          <mxGeometry y="52" width="200" height="8" as="geometry" />
        </mxCell>
        <mxCell id="27aQ2nf4AGTovxk-JPHq-50" value="+ " style="text;strokeColor=none;fillColor=none;align=left;verticalAlign=top;spacingLeft=4;spacingRight=4;overflow=hidden;rotatable=0;points=[[0,0.5],[1,0.5]];portConstraint=eastwest;" vertex="1" parent="27aQ2nf4AGTovxk-JPHq-47">
          <mxGeometry y="60" width="200" height="26" as="geometry" />
        </mxCell>
        <mxCell id="27aQ2nf4AGTovxk-JPHq-51" style="edgeStyle=none;rounded=0;orthogonalLoop=1;jettySize=auto;html=1;exitX=1;exitY=0.5;exitDx=0;exitDy=0;entryX=0.01;entryY=0.885;entryDx=0;entryDy=0;entryPerimeter=0;dashed=1;" edge="1" parent="27aQ2nf4AGTovxk-JPHq-1" source="27aQ2nf4AGTovxk-JPHq-3" target="27aQ2nf4AGTovxk-JPHq-48">
          <mxGeometry relative="1" as="geometry" />
        </mxCell>
        <mxCell id="27aQ2nf4AGTovxk-JPHq-52" value="PreemptableResourceScheduler" style="swimlane;fontStyle=1;align=center;verticalAlign=top;childLayout=stackLayout;horizontal=1;startSize=26;horizontalStack=0;resizeParent=1;resizeParentMax=0;resizeLast=0;collapsible=1;marginBottom=0;" vertex="1" parent="27aQ2nf4AGTovxk-JPHq-1">
          <mxGeometry x="280" y="400" width="200" height="86" as="geometry" />
        </mxCell>
        <mxCell id="27aQ2nf4AGTovxk-JPHq-53" value="+ " style="text;strokeColor=none;fillColor=none;align=left;verticalAlign=top;spacingLeft=4;spacingRight=4;overflow=hidden;rotatable=0;points=[[0,0.5],[1,0.5]];portConstraint=eastwest;" vertex="1" parent="27aQ2nf4AGTovxk-JPHq-52">
          <mxGeometry y="26" width="200" height="26" as="geometry" />
        </mxCell>
        <mxCell id="27aQ2nf4AGTovxk-JPHq-54" value="" style="line;strokeWidth=1;fillColor=none;align=left;verticalAlign=middle;spacingTop=-1;spacingLeft=3;spacingRight=3;rotatable=0;labelPosition=right;points=[];portConstraint=eastwest;" vertex="1" parent="27aQ2nf4AGTovxk-JPHq-52">
          <mxGeometry y="52" width="200" height="8" as="geometry" />
        </mxCell>
        <mxCell id="27aQ2nf4AGTovxk-JPHq-55" value="+ " style="text;strokeColor=none;fillColor=none;align=left;verticalAlign=top;spacingLeft=4;spacingRight=4;overflow=hidden;rotatable=0;points=[[0,0.5],[1,0.5]];portConstraint=eastwest;" vertex="1" parent="27aQ2nf4AGTovxk-JPHq-52">
          <mxGeometry y="60" width="200" height="26" as="geometry" />
        </mxCell>
        <mxCell id="27aQ2nf4AGTovxk-JPHq-56" value="Configurable" style="swimlane;fontStyle=1;align=center;verticalAlign=top;childLayout=stackLayout;horizontal=1;startSize=26;horizontalStack=0;resizeParent=1;resizeParentMax=0;resizeLast=0;collapsible=1;marginBottom=0;" vertex="1" parent="27aQ2nf4AGTovxk-JPHq-1">
          <mxGeometry x="280" y="520" width="200" height="86" as="geometry" />
        </mxCell>
        <mxCell id="27aQ2nf4AGTovxk-JPHq-57" value="+ " style="text;strokeColor=none;fillColor=none;align=left;verticalAlign=top;spacingLeft=4;spacingRight=4;overflow=hidden;rotatable=0;points=[[0,0.5],[1,0.5]];portConstraint=eastwest;" vertex="1" parent="27aQ2nf4AGTovxk-JPHq-56">
          <mxGeometry y="26" width="200" height="26" as="geometry" />
        </mxCell>
        <mxCell id="27aQ2nf4AGTovxk-JPHq-58" value="" style="line;strokeWidth=1;fillColor=none;align=left;verticalAlign=middle;spacingTop=-1;spacingLeft=3;spacingRight=3;rotatable=0;labelPosition=right;points=[];portConstraint=eastwest;" vertex="1" parent="27aQ2nf4AGTovxk-JPHq-56">
          <mxGeometry y="52" width="200" height="8" as="geometry" />
        </mxCell>
        <mxCell id="27aQ2nf4AGTovxk-JPHq-59" value="+ " style="text;strokeColor=none;fillColor=none;align=left;verticalAlign=top;spacingLeft=4;spacingRight=4;overflow=hidden;rotatable=0;points=[[0,0.5],[1,0.5]];portConstraint=eastwest;" vertex="1" parent="27aQ2nf4AGTovxk-JPHq-56">
          <mxGeometry y="60" width="200" height="26" as="geometry" />
        </mxCell>
        <mxCell id="27aQ2nf4AGTovxk-JPHq-60" style="edgeStyle=none;rounded=0;orthogonalLoop=1;jettySize=auto;html=1;exitX=1;exitY=0.5;exitDx=0;exitDy=0;entryX=0;entryY=0.5;entryDx=0;entryDy=0;dashed=1;" edge="1" parent="27aQ2nf4AGTovxk-JPHq-1" source="27aQ2nf4AGTovxk-JPHq-3" target="27aQ2nf4AGTovxk-JPHq-53">
          <mxGeometry relative="1" as="geometry" />
        </mxCell>
        <mxCell id="27aQ2nf4AGTovxk-JPHq-61" style="edgeStyle=none;rounded=0;orthogonalLoop=1;jettySize=auto;html=1;exitX=1;exitY=0.5;exitDx=0;exitDy=0;entryX=0.01;entryY=1.231;entryDx=0;entryDy=0;entryPerimeter=0;dashed=1;" edge="1" parent="27aQ2nf4AGTovxk-JPHq-1" source="27aQ2nf4AGTovxk-JPHq-3" target="27aQ2nf4AGTovxk-JPHq-57">
          <mxGeometry relative="1" as="geometry" />
        </mxCell>
      </root>
    </mxGraphModel>
  </diagram>
</mxfile>
